<svg width="43" height="43" viewBox="0 0 43 43" fill="none" xmlns="http://www.w3.org/2000/svg">
<path d="M24.7537 10.1567L32.8178 18.2208L18.2208 32.8178L10.1567 24.7537L24.7537 10.1567ZM19.3691 35.1401L35.1401 19.3691C35.4633 19.0459 35.6249 18.6631 35.6249 18.2208C35.6249 17.7784 35.4633 17.3956 35.1401 17.0724L25.9021 7.83442C25.5958 7.52819 25.2131 7.37507 24.7537 7.37507C24.2944 7.37507 23.9116 7.52819 23.6053 7.83442L7.83442 23.6053C7.51118 23.9286 7.34955 24.3114 7.34955 24.7537C7.34955 25.196 7.51118 25.5788 7.83442 25.9021L17.0724 35.1401C17.3786 35.4463 17.7614 35.5994 18.2208 35.5994C18.6801 35.5994 19.0629 35.4463 19.3691 35.1401ZM42.0558 18.8843L18.9098 42.0558C18.2803 42.6853 17.5105 43 16.6003 43C15.6901 43 14.9203 42.6853 14.2908 42.0558L11.0754 38.8404C12.0281 37.8876 12.5045 36.7308 12.5045 35.3697C12.5045 34.0087 12.0281 32.8518 11.0754 31.8991C10.1227 30.9464 8.96578 30.47 7.60475 30.47C6.24372 30.47 5.08684 30.9464 4.13412 31.8991L0.944214 28.6837C0.314738 28.0542 0 27.2844 0 26.3742C0 25.464 0.314738 24.6942 0.944214 24.0647L24.0902 0.944214C24.7197 0.314738 25.4895 0 26.3997 0C27.3099 0 28.0797 0.314738 28.7092 0.944214L31.8991 4.13412C30.9464 5.08684 30.47 6.24372 30.47 7.60475C30.47 8.96578 30.9464 10.1227 31.8991 11.0754C32.8518 12.0281 34.0087 12.5045 35.3697 12.5045C36.7308 12.5045 37.8876 12.0281 38.8404 11.0754L42.0558 14.2653C42.6853 14.8948 43 15.6646 43 16.5748C43 17.485 42.6853 18.2548 42.0558 18.8843Z" fill="black"/>
</svg>
